<?xml version="1.0" encoding="UTF-8" standalone="no"?>
<svg
   version="1.1"
   width="595.27557pt"
   height="841.88977pt"
   id="svg86"
   viewBox="0 0 595.27557 841.88977"
   sodipodi:docname="Aestivus Logo Final.cdr"
   xmlns:inkscape="http://www.inkscape.org/namespaces/inkscape"
   xmlns:sodipodi="http://sodipodi.sourceforge.net/DTD/sodipodi-0.dtd"
   xmlns="http://www.w3.org/2000/svg"
   xmlns:svg="http://www.w3.org/2000/svg">
  <defs
     id="defs90" />
  <sodipodi:namedview
     id="namedview88"
     pagecolor="#ffffff"
     bordercolor="#000000"
     borderopacity="0.25"
     inkscape:showpageshadow="2"
     inkscape:pageopacity="0.0"
     inkscape:pagecheckerboard="0"
     inkscape:deskcolor="#d1d1d1"
     inkscape:document-units="pt" />
  <path
     d="m 146.7556,317.6764 c -0.1026,-1.6932 -0.2985,-3.3857 -0.4633,-5.2026 -5.3496,2.8237 -6.9534,6.218 -4.7975,10.3272 0.5959,-2.448 0.862,-4.9333 2.8173,-6.9215 -0.6004,2.5645 -1.1501,4.9272 -1.7392,7.4408 2.6128,-0.461 4.344,-2.9673 4.1827,-5.6439 z"
     style="fill:#005ba1;fill-rule:evenodd"
     id="path2" />
  <path
     d="m 144.5265,360.9315 c 0.8391,1.8297 1.9035,3.5251 1.6596,5.742 -0.896,-1.9052 -1.7178,-3.6652 -2.5948,-5.5346 -1.4153,1.5767 -1.2621,4.0069 0.1671,5.61 0.9023,1.0166 1.8637,1.9825 2.8692,3.0439 1.9657,-4.4147 1.2902,-7.3387 -2.1011,-8.8613 z"
     style="fill:#005ba1;fill-rule:evenodd"
     id="path4" />
  <path
     d="m 157.7795,356.8159 c 2.2123,0.8298 4.4979,1.3623 6.1263,3.4057 -2.3201,-0.8477 -4.4574,-1.6308 -6.7314,-2.4635 0.1297,2.4751 2.2642,4.3698 4.7745,4.5219 1.5904,0.1009 3.1902,0.1123 4.9017,0.1643 -2.0147,-5.2781 -4.994,-7.1602 -9.0711,-5.6284 z"
     style="fill:#005ba1;fill-rule:evenodd"
     id="path6" />
  <path
     d="m 151.89,327.7777 c 0.4345,-1.8539 0.766,-3.7283 1.1722,-5.7361 -6.6461,1.3207 -9.4588,4.4551 -8.463,9.5574 1.4239,-2.4405 2.5079,-5.0223 5.244,-6.532 -1.4626,2.5586 -2.8139,4.9213 -4.2501,7.4309 2.9529,0.3389 5.613,-1.7962 6.2969,-4.7202 z"
     style="fill:#005ba1;fill-rule:evenodd"
     id="path8" />
  <path
     d="m 134.2528,308.841 c -0.1619,1.4764 -0.3463,2.8456 -0.4523,4.2178 -0.1746,2.1712 1.1964,4.2325 3.31,4.6475 -0.4396,-2.055 -0.8529,-3.9757 -1.3023,-6.0676 1.5599,1.6424 1.7392,3.6645 2.1886,5.6613 1.8101,-3.3043 0.5562,-6.0853 -3.744,-8.459 z"
     style="fill:#005ba1;fill-rule:evenodd"
     id="path10" />
  <path
     d="m 165.5851,333.5865 c 1.4469,-0.5273 2.8647,-1.1347 4.4021,-1.7507 -3.8322,-3.8938 -7.1964,-4.4062 -10.2132,-1.4786 2.2825,-0.1188 4.5105,-0.5268 6.7412,0.6493 -2.3789,0.1464 -4.5745,0.2779 -6.9101,0.4185 1.0737,2.1402 3.6986,2.9908 5.98,2.1615 z"
     style="fill:#005ba1;fill-rule:evenodd"
     id="path12" />
  <path
     d="m 164.6469,351.5189 c -4.6764,-6.3639 -9.3874,-7.7935 -14.311,-4.2235 3.2905,0.3025 6.5648,0.174 9.5181,2.3217 -3.4378,-0.2875 -6.6096,-0.5526 -9.9802,-0.8298 1.0936,3.2842 4.6741,5.0423 8.1131,4.3231 2.179,-0.4535 4.3331,-1.0298 6.66,-1.5915 z"
     style="fill:#005ba1;fill-rule:evenodd"
     id="path14" />
  <path
     d="m 121.0436,322.4178 c 0.3873,2.3593 0.6909,4.564 1.1174,6.7412 0.6708,3.4456 3.6852,6.0526 7.144,5.7846 -1.5675,-2.992 -3.0404,-5.8058 -4.6383,-8.8584 3.1296,1.8787 4.2809,4.9461 5.8357,7.8517 1.3831,-5.9119 -1.7609,-9.6905 -9.4588,-11.5191 z"
     style="fill:#005ba1;fill-rule:evenodd"
     id="path16" />
  <path
     d="m 102.8348,346.5272 c -4.6678,-1.8724 -8.1589,0.2131 -10.6311,6.2633 1.9816,-0.0178 3.8259,0.0128 5.6658,-0.0604 2.9056,-0.1158 5.4222,-2.244 5.6378,-5.0954 -2.6486,0.9025 -5.1399,1.7438 -7.8402,2.6618 1.9345,-2.3149 4.5893,-2.8668 7.1677,-3.7693 z"
     style="fill:#005ba1;fill-rule:evenodd"
     id="path18" />
  <path
     d="m 92.6998,360.0389 c 0.4324,-1.9737 1.8367,-3.1193 3.0901,-4.4546 -3.3539,0.329 -4.7798,2.6463 -4.3713,7.0029 1.17,-0.6219 2.2745,-1.1733 3.3443,-1.7864 1.6914,-0.9636 2.5246,-3.003 1.7663,-4.7658 -1.2914,1.3508 -2.5092,2.6254 -3.8294,4.0039 z"
     style="fill:#005ba1;fill-rule:evenodd"
     id="path20" />
  <path
     d="m 116.0785,306.8137 c 2.8433,0.6039 4.507,2.6082 6.4357,4.3946 -0.4995,-4.8084 -3.8489,-6.8328 -10.1129,-6.2139 0.9036,1.6763 1.7064,3.253 2.595,4.7836 1.4002,2.4122 4.3456,3.5959 6.8759,2.494 -1.9558,-1.8416 -3.7976,-3.5769 -5.7937,-5.4583 z"
     style="fill:#005ba1;fill-rule:evenodd"
     id="path22" />
  <path
     d="m 97.1596,329.9375 c -2.7025,-0.9306 -5.2445,-1.8088 -7.9996,-2.758 3.0167,-0.6586 5.5038,0.559 8.1519,1.4453 -2.587,-4.4327 -6.7159,-4.9329 -12.5111,-1.6003 1.6078,1.2228 3.0775,2.403 4.6089,3.495 2.4119,1.7283 5.7825,1.5888 7.7499,-0.582 z"
     style="fill:#005ba1;fill-rule:evenodd"
     id="path24" />
  <path
     d="m 107.4795,332.8483 c 0.8269,1.5306 1.5598,2.9723 2.373,4.3727 1.2805,2.2077 3.9768,3.287 6.2917,2.2832 -1.7922,-1.6884 -3.4749,-3.2737 -5.3016,-4.994 2.6012,0.5515 4.1231,2.3846 5.8859,4.016 -0.4558,-4.3933 -3.5193,-6.2483 -9.249,-5.6779 z"
     style="fill:#005ba1;fill-rule:evenodd"
     id="path26" />
  <path
     d="m 86.7577,339.3804 c -2.3983,-0.562 -4.6532,-1.0922 -7.0964,-1.6615 2.5265,-0.8241 4.7641,-0.006 7.1105,0.5232 -2.6061,-3.5705 -6.1876,-3.6368 -10.8586,-0.2731 1.4865,0.9083 2.8499,1.7859 4.2553,2.588 2.2204,1.2678 5.0937,0.8506 6.5892,-1.1766 z"
     style="fill:#005ba1;fill-rule:evenodd"
     id="path28" />
  <path
     d="m 91.6276,348.4328 c -1.8194,1.0523 -3.5325,2.0429 -5.3903,3.1166 1.0851,-1.994 2.9624,-2.7897 4.7334,-3.8334 -3.7203,-0.6973 -5.9897,1.3549 -6.9215,6.1759 1.4594,-0.3026 2.8253,-0.5515 4.171,-0.8748 2.1252,-0.5065 3.669,-2.4463 3.4074,-4.5843 z"
     style="fill:#005ba1;fill-rule:evenodd"
     id="path30" />
  <path
     d="m 108.1105,317.7156 c 0.0657,-4.4184 -2.7546,-6.6167 -8.512,-6.7326 0.6396,1.6182 1.198,3.1401 1.8404,4.6216 1.0104,2.3449 3.5591,3.7331 5.9761,3.0105 -1.5796,-1.8885 -3.0619,-3.6594 -4.6725,-5.5812 2.5154,0.8517 3.8115,2.852 5.368,4.6817 z"
     style="fill:#005ba1;fill-rule:evenodd"
     id="path32" />
  <path
     d="m 153.5987,316.4442 c -1.3928,1.4177 -2.6767,2.7195 -4.0395,4.1094 1.8618,0.7227 3.9583,-0.2108 4.9039,-2.0002 0.6005,-1.1278 1.1387,-2.293 1.7431,-3.5308 -4.5478,-0.2709 -6.9145,1.2868 -7.141,4.7773 1.3445,-1.3439 2.4924,-2.8375 4.5335,-3.3557 z"
     style="fill:#4e954e;fill-rule:evenodd"
     id="path34" />
  <path
     d="m 149.6294,354.2267 c 1.7098,1.8533 3.6298,3.4582 4.2016,6.1839 -1.8031,-1.9184 -3.4641,-3.6898 -5.2337,-5.5736 -1.0673,2.4209 0.0588,5.2475 2.3783,6.6045 1.4683,0.8558 2.9851,1.6343 4.5923,2.5063 0.6228,-6.0071 -1.3152,-9.2268 -5.9385,-9.7211 z"
     style="fill:#4e954e;fill-rule:evenodd"
     id="path36" />
  <path
     d="m 154.6441,326.5036 c 1.3139,-1.1525 2.4537,-2.4542 4.3537,-2.8058 -1.3612,1.2113 -2.6128,2.3361 -3.9486,3.5256 1.6631,0.7738 3.6408,0.0427 4.6165,-1.5404 0.6165,-0.9969 1.1778,-2.0307 1.8072,-3.1291 -4.1492,-0.5216 -6.4104,0.7664 -6.8288,3.9497 z"
     style="fill:#4e954e;fill-rule:evenodd"
     id="path38" />
  <path
     d="m 135.3448,339.3412 c 1.3416,-1.3462 2.4906,-2.8428 4.5273,-3.358 -1.3888,1.4177 -2.6705,2.7194 -4.0363,4.1094 1.8608,0.7266 3.9602,-0.2086 4.9065,-1.9968 0.5998,-1.1335 1.1362,-2.2982 1.7442,-3.5336 -4.5501,-0.2709 -6.9181,1.2867 -7.1417,4.779 z"
     style="fill:#4e954e;fill-rule:evenodd"
     id="path40" />
  <path
     d="m 126.4306,311.1996 c 0.0501,1.5883 0.0633,3.0663 0.155,4.5365 0.1423,2.3171 1.798,4.1929 3.956,4.171 -0.7323,-2.0613 -1.4193,-3.9998 -2.1632,-6.1033 1.7823,1.3922 2.2532,3.4848 2.9839,5.4873 1.3225,-3.8662 -0.321,-6.5246 -4.9317,-8.0915 z"
     style="fill:#4e954e;fill-rule:evenodd"
     id="path42" />
  <path
     d="m 165.1845,353.5991 c 1.4182,0.5331 2.8837,0.8743 3.9285,2.1824 -1.4869,-0.5423 -2.8566,-1.0459 -4.3163,-1.5791 0.0825,1.5848 1.4511,2.802 3.0617,2.9032 1.0195,0.0641 2.0429,0.0704 3.1431,0.1067 -1.2944,-3.3879 -3.203,-4.5951 -5.817,-3.6132 z"
     style="fill:#4e954e;fill-rule:evenodd"
     id="path44" />
  <path
     d="m 167.9063,347.5218 c 1.4416,-0.5226 2.8529,-1.1256 4.3806,-1.7354 v -0.0294 c -3.8236,-3.8778 -7.1822,-4.3832 -10.19,-1.4612 2.2792,-0.1198 4.5065,-0.5278 6.7407,0.649 -2.3801,0.1434 -4.5757,0.2772 -6.9118,0.4172 1.0741,2.1409 3.699,2.9919 5.9805,2.1598 z"
     style="fill:#4e954e;fill-rule:evenodd"
     id="path46" />
  <path
     d="m 150.3445,338.7118 c 3.0859,-0.9364 5.9436,-2.2255 9.6427,-1.4787 -3.2099,1.0004 -6.1701,1.9214 -9.3176,2.9067 2.6047,2.3777 6.6714,2.5731 9.3844,0.7197 1.7196,-1.172 3.3569,-2.4341 5.1547,-3.7479 -7.3301,-3.69 -12.2411,-3.1925 -14.8642,1.6002 z"
     style="fill:#4e954e;fill-rule:evenodd"
     id="path48" />
  <path
     d="m 100.7694,359.3803 c 0.571,-2.6071 2.4272,-4.1295 4.0816,-5.889 -4.4337,0.4363 -6.3181,3.5015 -5.7771,9.2583 1.5486,-0.824 3.0088,-1.5523 4.4236,-2.3609 2.2323,-1.2747 3.3337,-3.975 2.3333,-6.3033 -1.7098,1.7882 -3.3154,3.4709 -5.0614,5.2949 z"
     style="fill:#4e954e;fill-rule:evenodd"
     id="path50" />
  <path
     d="m 135.539,322.884 c 2.0926,2.0146 2.4382,4.5952 3.1269,7.129 2.1281,-4.3393 0.3625,-7.8307 -5.281,-10.6182 -0.1209,1.9005 -0.2777,3.6656 -0.3353,5.4272 -0.0951,2.7897 1.7777,5.3512 4.5063,5.757 -0.681,-2.5966 -1.323,-5.0423 -2.0169,-7.695 z"
     style="fill:#4e954e;fill-rule:evenodd"
     id="path52" />
  <path
     d="m 109.6583,313.382 c 0.9059,1.674 1.7082,3.2541 2.5955,4.7813 1.4009,2.4179 4.3474,3.5954 6.8789,2.4941 -1.9588,-1.8384 -3.7999,-3.574 -5.7938,-5.455 2.8405,0.6011 4.5059,2.6042 6.4335,4.3947 -0.4973,-4.8089 -3.8483,-6.8363 -10.1141,-6.2151 z"
     style="fill:#4e954e;fill-rule:evenodd"
     id="path54" />
  <path
     d="m 107.5065,323.0673 c 1.0091,1.8619 1.9012,3.6195 2.8911,5.3236 1.5571,2.686 4.8378,4.0039 7.6535,2.7781 -2.1801,-2.0526 -4.2293,-3.9859 -6.4473,-6.0744 3.1625,0.6673 5.0124,2.8992 7.1584,4.8851 -0.5549,-5.3455 -4.2823,-7.5986 -11.2557,-6.9124 z"
     style="fill:#4e954e;fill-rule:evenodd"
     id="path56" />
  <path
     d="m 90.8087,335.2812 c 3.3441,-0.3221 6.076,1.2085 8.9868,2.4181 -2.7898,-4.8285 -7.3464,-5.8179 -13.8032,-3.0881 1.7588,1.4401 3.3634,2.8116 5.039,4.1104 2.6378,2.0401 6.3647,2.2872 8.5752,0.302 -2.973,-1.2627 -5.7698,-2.455 -8.7978,-3.7424 z"
     style="fill:#4e954e;fill-rule:evenodd"
     id="path58" />
  <path
     d="m 94.0813,343.1607 c -2.2286,-3.0492 -5.289,-3.1073 -9.2805,-0.2341 1.2697,0.7798 2.4346,1.5301 3.6352,2.2135 1.898,1.088 4.3543,0.7284 5.6335,-1.0039 -2.0502,-0.4811 -3.9776,-0.9336 -6.0659,-1.4205 2.16,-0.7042 4.0715,-0.003 6.0777,0.445 z"
     style="fill:#4e954e;fill-rule:evenodd"
     id="path60" />
  <path
     d="m 99.9787,323.6246 c -1.5778,-1.8816 -3.0617,-3.6559 -4.6723,-5.5794 2.5166,0.8534 3.812,2.8543 5.369,4.6826 0.0675,-4.4147 -2.7546,-6.6201 -8.5132,-6.7295 0.6402,1.6163 1.1979,3.1383 1.8405,4.6228 1.011,2.3425 3.5593,3.7319 5.976,3.0035 z"
     style="fill:#4e954e;fill-rule:evenodd"
     id="path62" />
  <path
     d="m 158.0464,415.3422 c -0.007,0 -0.015,-0.006 -0.0317,-0.0121 z"
     style="fill:#005ba1;fill-rule:evenodd"
     id="path64" />
  <path
     d="m 158.0147,415.3301 c 0.0167,0.006 0.0247,0.0126 0.0317,0.0126 0.007,0.003 0.0114,0.003 0.0114,0.003 z"
     style="fill:#005ba1;fill-rule:evenodd"
     id="path66" />
  <path
     d="m 122.5702,358.5291 c -8.1375,-7.4495 -18.7529,-19.5729 -21.5553,-34.1058 -2.5253,21.1808 9.8391,33.4984 14.7599,37.4965 0.0732,0.0611 0.1366,0.1101 0.2075,0.1643 2.8599,-1.7046 5.123,-2.7229 6.8137,-3.3505 -0.076,-0.0702 -0.1492,-0.1371 -0.2258,-0.2045 z"
     style="fill:#4e954e;fill-rule:evenodd"
     id="path68" />
  <path
     d="m 127.9041,355.9468 c 3.3159,0 6.0047,-2.6842 6.0047,-5.9925 0,-3.3072 -2.6888,-5.9921 -6.0047,-5.9921 -3.3153,0 -6.0041,2.6842 -6.0041,5.9921 0,3.3088 2.6888,5.9925 6.0041,5.9925 z"
     style="fill:#005ba1;fill-rule:evenodd"
     id="path70" />
  <path
     d="m 134.9691,403.1057 c -0.3757,0.378 -0.8816,0.8753 -1.583,1.5674 -0.5089,0.5037 -1.1272,1.1099 -1.8665,1.8452 9.8058,4.5952 25.5661,8.5859 26.4951,8.8118 -0.7671,-0.3112 -12.4877,-5.1011 -23.0456,-12.2244 z"
     style="fill:#005ba1;fill-rule:evenodd"
     id="path72" />
  <path
     d="m 123.9053,393.8883 c -0.7779,-0.854 -1.4937,-1.7237 -2.143,-2.595 -0.3453,-0.4667 -0.6697,-0.9398 -0.9723,-1.4153 -0.5042,-0.7865 -0.9427,-1.5767 -1.3231,-2.3846 l 13.8213,-2.5759 c -0.004,-0.0616 -0.005,-0.1199 -0.0104,-0.1769 -0.0415,-0.4218 -0.1129,-0.8604 -0.2139,-1.3052 -0.005,-0.0255 -0.0109,-0.0467 -0.0148,-0.0674 l -14.1941,2.6468 c -0.0773,-0.2109 -0.1521,-0.4156 -0.2173,-0.6276 -0.3025,-0.733 -0.5435,-1.4338 -0.7325,-2.1143 -0.1497,-0.5268 -0.2564,-1.0327 -0.3422,-1.53 -0.1828,-1.0678 -0.238,-2.0672 -0.1828,-3.0064 l 12.0026,-2.2383 c -0.1423,-0.1797 -0.2852,-0.3543 -0.4299,-0.5214 -0.2524,-0.2899 -0.5094,-0.5758 -0.7647,-0.8506 l -10.5884,1.9725 c 0.1689,-0.8355 0.4253,-1.6152 0.7429,-2.3356 0.2811,-0.6402 0.6033,-1.2286 0.9595,-1.7743 0.8326,-1.2844 1.8284,-2.3299 2.7672,-3.147 0.559,-0.4887 1.1,-0.8966 1.5721,-1.2258 0.6684,-0.469 1.2101,-0.7842 1.4896,-0.945 1.5963,-0.6989 3.434,-1.5214 5.353,-2.5252 0.5946,-0.3146 1.1997,-0.6438 1.8065,-0.9878 8.0165,-4.5743 16.6738,-12.3396 15.5841,-26.4454 -3.6437,14.9282 -15.2446,20.1492 -21.148,21.8711 -2.675,0.2385 -15.9049,7.3002 -17.5369,15.2889 -0.117,0.5763 -0.3128,1.125 -0.4218,1.6741 -0.1493,0.7617 -0.2426,1.5156 -0.2772,2.2531 -0.0294,0.5401 -0.0253,1.0679 0.002,1.5929 0.0502,1.0085 0.1988,1.9996 0.4311,2.9625 0.1204,0.5107 0.2627,1.0195 0.4293,1.5156 0.3054,0.9215 0.6875,1.8297 1.1294,2.7079 0.2466,0.4881 0.5129,0.9727 0.7908,1.4453 0.4742,0.8022 0.9945,1.5858 1.5541,2.342 0.3481,0.4726 0.7088,0.9365 1.0863,1.394 0.7318,0.8869 1.511,1.7443 2.3148,2.5579 0.4471,0.4605 0.9122,0.9083 1.3733,1.3353 1.6665,1.5582 3.3786,2.9333 4.9582,4.1053 l 0.2098,-0.2109 c 1.3473,-1.3662 2.6041,-2.6595 3.8373,-3.9451 -0.4847,-0.4489 -0.9578,-0.9025 -1.416,-1.3605 -0.4459,-0.445 -0.8759,-0.9002 -1.2862,-1.3537 z"
     style="fill:#005ba1;fill-rule:evenodd"
     id="path74" />
  <path
     d="m 131.9512,366.5852 -0.5556,0.29 c -0.002,0 -0.002,0 -0.006,0.003 -0.2386,0.1244 -0.4783,0.2473 -0.7151,0.366 -0.001,0.003 -0.002,0.006 -0.004,0.006 -1.6834,0.8487 -3.2744,1.565 -4.647,2.1621 -0.0461,0.0282 -0.1038,0.0645 -0.1603,0.0957 -0.1498,0.0905 -0.3313,0.1999 -0.533,0.3342 -0.005,0 -0.009,0.003 -0.0121,0.003 0.5665,0.4444 1.2395,1.0034 1.9656,1.6556 l -5.0827,0.9481 c -0.4719,0.5123 -0.8948,1.0494 -1.2527,1.5979 -0.0547,0.0818 -0.1003,0.1769 -0.1534,0.2588 l 7.8995,-1.4753 c 0.5793,0.5757 1.1677,1.2044 1.7415,1.8717 0.3862,0.4461 0.7566,0.9087 1.1203,1.3888 0.6437,0.8524 1.247,1.7547 1.7738,2.7097 l -13.8414,2.5834 c 0.004,0.009 0.004,0.0178 0.005,0.0276 0.0887,0.5059 0.1821,0.926 0.2968,1.333 0.0149,0.0535 0.0363,0.1123 0.0513,0.1664 l 14.2142,-2.652 c 0.3953,0.8836 0.7111,1.8049 0.9215,2.7471 0.1117,0.5095 0.197,1.0247 0.2505,1.5525 0.0807,0.8633 0.0652,1.7437 -0.0593,2.6376 l -12.2889,2.2923 c 0.1452,0.2081 0.2962,0.427 0.4628,0.6495 0.1844,0.2507 0.3809,0.5002 0.5791,0.7509 l 10.8782,-2.0278 c -0.3233,1.0827 -0.8303,2.1799 -1.5466,3.2801 -0.1995,0.3082 -0.4162,0.6228 -0.6495,0.9306 -0.2939,0.3205 -0.5838,0.6379 -0.8731,0.9474 -0.7929,0.8575 -1.5612,1.6786 -2.3085,2.4676 -0.007,0.009 -0.0178,0.0149 -0.0276,0.0242 l 0.006,0.009 -1.3092,1.3658 c -0.006,0.003 -0.0144,0.0121 -0.0196,0.0191 -0.0963,0.1038 -0.207,0.2132 -0.3233,0.3347 -1.1722,1.2229 -2.3477,2.4296 -3.5821,3.6777 l -1.4039,1.4264 h -0.006 c -13.6973,13.7583 -17.4345,16.0179 -17.4345,34.1478 5.1,-18.1212 11.972,-19.3343 22.8877,-30.4493 5.0441,-5.0066 5.951,-5.8307 6.3534,-6.3637 1.5869,-2.1161 3.1994,-3.83 4.689,-7.8754 2.894,-6.7031 2.5938,-16.1804 -7.3002,-26.2179 z"
     style="fill:#4e954e;fill-rule:evenodd"
     id="path76" />
  <path
     d="m 346.1461,409.173 v -10.6106 h 1.4079 v 4.3716 h 5.4832 v -4.3716 h 1.4078 v 10.6106 h -1.4078 v -4.9941 h -5.4832 v 4.9941 z m 16.4076,0 v -10.6106 h 7.6617 v 1.2447 h -6.2539 v 3.2604 h 5.8537 v 1.2449 h -5.8537 v 3.6157 h 6.5058 v 1.2449 z m 14.4271,0 4.0703,-10.6106 h 1.5437 l 4.3198,10.6106 h -1.598 l -1.2275,-3.2157 h -4.4681 l -1.151,3.2157 z m 3.0527,-4.3569 h 3.6159 l -1.1064,-2.9416 c -0.3335,-0.8942 -0.5854,-1.6327 -0.7607,-2.2155 -0.1459,0.6916 -0.3409,1.3708 -0.5855,2.0425 z m 13.671,4.3569 v -10.6106 h 1.4078 v 9.3657 h 5.2164 v 1.2449 z m 16.7339,0 v -9.3659 h -3.4974 v -1.2447 h 8.4025 v 1.2447 h -3.4974 v 9.3659 z m 12.1496,0 v -10.6106 h 1.4079 v 4.3716 h 5.4832 v -4.3716 h 1.4078 v 10.6106 h -1.4078 v -4.9941 h -5.4832 v 4.9941 z m 23.9358,-3.7221 1.408,0.3556 c -0.2941,1.1535 -0.8225,2.0303 -1.5857,2.6354 -0.7633,0.6052 -1.6969,0.909 -2.801,0.909 -1.141,0 -2.0696,-0.2323 -2.7859,-0.699 -0.7163,-0.4644 -1.2598,-1.1387 -1.6327,-2.0204 -0.3729,-0.8843 -0.5606,-1.8302 -0.5606,-2.8429 0,-1.104 0.2099,-2.0673 0.6323,-2.8898 0.4223,-0.8225 1.0226,-1.4473 1.8005,-1.8746 0.778,-0.4273 1.6351,-0.6397 2.5687,-0.6397 1.0621,0 1.9536,0.2692 2.675,0.8102 0.7236,0.5409 1.2274,1.2992 1.5115,2.2771 l -1.3782,0.3261 c -0.2445,-0.7705 -0.6026,-1.3338 -1.0695,-1.6845 -0.4668,-0.3532 -1.0546,-0.5284 -1.7635,-0.5284 -0.8125,0 -1.4944,0.195 -2.0401,0.5853 -0.5459,0.3902 -0.9311,0.9164 -1.151,1.5734 -0.2223,0.6594 -0.3334,1.3386 -0.3334,2.0376 0,0.9015 0.1309,1.6894 0.3927,2.3612 0.2619,0.6742 0.6693,1.1757 1.2225,1.5091 0.5533,0.3334 1.151,0.4989 1.7958,0.4989 0.7854,0 1.4473,-0.2273 1.9907,-0.6793 0.5433,-0.4544 0.9114,-1.1263 1.1039,-2.0203 z m 7.7164,3.7221 4.0704,-10.6106 h 1.5437 l 4.3198,10.6106 h -1.598 l -1.2275,-3.2157 h -4.4681 l -1.151,3.2157 z m 3.0528,-4.3569 h 3.6159 l -1.1064,-2.9416 c -0.3335,-0.8942 -0.5854,-1.6327 -0.7607,-2.2155 -0.1459,0.6916 -0.3409,1.3708 -0.5855,2.0425 z m 13.7599,4.3569 v -10.6106 h 4.7027 c 0.9459,0 1.6647,0.0962 2.1562,0.2865 0.4915,0.1901 0.8842,0.526 1.1781,1.0077 0.2939,0.4816 0.4396,1.0151 0.4396,1.5979 0,0.7534 -0.2445,1.3882 -0.731,1.9044 -0.4866,0.5162 -1.2374,0.8422 -2.2551,0.983 0.373,0.1779 0.6546,0.3556 0.8472,0.5286 0.41,0.3754 0.7978,0.8472 1.1609,1.4127 l 1.8351,2.8898 h -1.7536 l -1.403,-2.208 c -0.4074,-0.6398 -0.7459,-1.1263 -1.0102,-1.4648 -0.2667,-0.3383 -0.5037,-0.573 -0.7137,-0.7087 -0.2074,-0.1335 -0.4224,-0.2273 -0.6398,-0.2817 -0.158,-0.032 -0.4174,-0.0493 -0.7803,-0.0493 h -1.6254 v 4.7125 z m 1.4077,-5.9277 h 3.0134 c 0.6421,0 1.1411,-0.0668 1.5017,-0.2001 0.3606,-0.131 0.6347,-0.3433 0.82,-0.6372 0.1877,-0.2914 0.2816,-0.6077 0.2816,-0.9509 0,-0.5015 -0.1803,-0.9164 -0.5435,-1.24 -0.3629,-0.3234 -0.936,-0.484 -1.7189,-0.484 h -3.3543 z m 15.0297,5.9277 v -10.6106 h 7.6616 v 1.2447 h -6.2539 v 3.2604 h 5.8537 v 1.2449 h -5.8537 v 3.6157 h 6.5058 v 1.2449 z"
     style="fill:#004494;fill-rule:evenodd"
     id="path78" />
  <path
     d="m 218.8242,373.6488 h -19.6413 l -3.7471,9.0652 h -10.0321 l 18.8558,-42.3042 h 9.6695 l 18.9159,42.3042 H 222.571 Z m -3.0822,-7.4336 -6.7084,-16.1963 -6.7082,16.1963 z m 54.2702,8.6423 v 7.8565 h -32.7555 v -42.3042 h 31.9697 v 7.8565 h -22.2398 v 9.1859 h 19.6413 v 7.615 h -19.6413 v 9.7903 z m 21.6961,8.5816 c -3.344,0 -6.5775,-0.4532 -9.6999,-1.3598 -3.1224,-0.9065 -5.6304,-2.0848 -7.524,-3.5353 l 3.3239,-7.3729 c 1.8131,1.3294 3.9685,2.3972 6.4664,3.2028 2.4979,0.8059 4.9961,1.2087 7.494,1.2087 2.7799,0 4.8347,-0.4127 6.1642,-1.2387 1.3297,-0.826 1.9944,-1.9239 1.9944,-3.2939 0,-1.0071 -0.3928,-1.8431 -1.1786,-2.5078 -0.7855,-0.665 -1.7929,-1.1988 -3.0217,-1.6016 -1.2289,-0.4031 -2.8908,-0.8461 -4.9859,-1.3297 -3.223,-0.7654 -5.862,-1.531 -7.9169,-2.2963 -2.0548,-0.7657 -3.8174,-1.9945 -5.288,-3.6865 -1.4706,-1.6923 -2.2059,-3.9484 -2.2059,-6.7689 0,-2.4576 0.665,-4.6836 1.9944,-6.6778 1.3295,-1.9945 3.3341,-3.5759 6.0132,-4.7444 2.6793,-1.1681 5.953,-1.7523 9.8206,-1.7523 2.6994,0 5.3385,0.3223 7.9172,0.9669 2.5783,0.6446 4.8347,1.5712 6.7685,2.7799 l -3.0217,7.4336 c -3.9081,-2.2162 -7.8163,-3.3239 -11.7244,-3.3239 -2.7397,0 -4.7642,0.443 -6.0735,1.3294 -1.3096,0.8864 -1.9641,2.0548 -1.9641,3.5053 0,1.4502 0.7554,2.528 2.2663,3.2332 1.5108,0.705 3.8174,1.4001 6.9196,2.0849 3.2233,0.7657 5.8621,1.531 7.9169,2.2966 2.0548,0.7654 3.8174,1.9741 5.288,3.6261 1.4707,1.6518 2.206,3.888 2.206,6.7082 0,2.4174 -0.675,4.6233 -2.0245,6.6175 -1.3499,1.9945 -3.3744,3.5759 -6.0738,4.7443 -2.6995,1.1682 -5.9831,1.7524 -9.8507,1.7524 z M 324.5244,348.387 H 310.987 v -7.9772 h 36.8651 v 7.9772 h -13.5374 v 34.327 h -9.7903 z m 28.5857,-7.9772 h 9.7903 v 42.3042 h -9.7903 z m 60.2532,0 -18.3115,42.3042 h -9.6695 l -18.2515,-42.3042 h 10.5761 l 12.8727,30.2173 13.0538,-30.2173 z m 23.207,43.0293 c -6.0435,0 -10.7473,-1.6719 -14.1114,-5.0159 -3.3645,-3.344 -5.0466,-8.1184 -5.0466,-14.3232 v -23.6902 h 9.7906 v 23.3277 c 0,7.5744 3.1425,11.3618 9.4278,11.3618 3.062,0 5.3988,-0.9167 7.0103,-2.7499 1.6118,-1.8331 2.4174,-4.7038 2.4174,-8.6119 v -23.3277 h 9.6696 V 364.1 c 0,6.2048 -1.6821,10.9792 -5.0463,14.3232 -3.3641,3.344 -8.0679,5.0159 -14.1114,5.0159 z m 42.7275,0 c -3.3441,0 -6.5775,-0.4532 -9.6999,-1.3598 -3.1224,-0.9065 -5.6305,-2.0848 -7.524,-3.5353 l 3.3239,-7.3729 c 1.813,1.3294 3.9685,2.3972 6.4664,3.2028 2.4979,0.8059 4.9961,1.2087 7.4939,1.2087 2.78,0 4.8348,-0.4127 6.1643,-1.2387 1.3297,-0.826 1.9944,-1.9239 1.9944,-3.2939 0,-1.0071 -0.3929,-1.8431 -1.1786,-2.5078 -0.7855,-0.665 -1.7929,-1.1988 -3.0218,-1.6016 -1.2288,-0.4031 -2.8907,-0.8461 -4.9858,-1.3297 -3.223,-0.7654 -5.8621,-1.531 -7.9169,-2.2963 -2.0548,-0.7657 -3.8174,-1.9945 -5.288,-3.6865 -1.4706,-1.6923 -2.206,-3.9484 -2.206,-6.7689 0,-2.4576 0.6651,-4.6836 1.9945,-6.6778 1.3295,-1.9945 3.3341,-3.5759 6.0131,-4.7444 2.6793,-1.1681 5.9531,-1.7523 9.8207,-1.7523 2.6994,0 5.3385,0.3223 7.9171,0.9669 2.5784,0.6446 4.8348,1.5712 6.7686,2.7799 l -3.0217,7.4336 c -3.9082,-2.2162 -7.8163,-3.3239 -11.7244,-3.3239 -2.7397,0 -4.7642,0.443 -6.0735,1.3294 -1.3096,0.8864 -1.9641,2.0548 -1.9641,3.5053 0,1.4502 0.7554,2.528 2.2663,3.2332 1.5108,0.705 3.8174,1.4001 6.9196,2.0849 3.2233,0.7657 5.8621,1.531 7.9169,2.2966 2.0548,0.7654 3.8174,1.9741 5.288,3.6261 1.4706,1.6518 2.2059,3.888 2.2059,6.7082 0,2.4174 -0.6749,4.6233 -2.0245,6.6175 -1.3498,1.9945 -3.3743,3.5759 -6.0738,4.7443 -2.6994,1.1682 -5.983,1.7524 -9.8506,1.7524 z"
     style="fill:#004494;fill-rule:evenodd"
     id="path80" />
  <path
     d="M 51.6487,295.1209 H 526.3994 V 451.4961 H 51.6487 Z"
     style="fill:none"
     id="path82" />
  <path
     d="m 670.4922,1200.0908 v -10.6107 h 1.4079 v 4.3716 h 5.4832 v -4.3716 h 1.4078 v 10.6107 h -1.4078 v -4.9942 h -5.4832 v 4.9942 z m 16.4076,0 v -10.6107 h 7.6617 v 1.2448 h -6.2539 v 3.2603 h 5.8537 v 1.2449 h -5.8537 v 3.6158 h 6.5058 v 1.2449 z m 14.4271,0 4.0704,-10.6107 h 1.5436 l 4.3198,10.6107 h -1.598 l -1.2274,-3.2158 h -4.4682 l -1.151,3.2158 z m 3.0527,-4.3569 h 3.6159 l -1.1064,-2.9417 c -0.3335,-0.8942 -0.5854,-1.6327 -0.7607,-2.2155 -0.1459,0.6916 -0.3409,1.3708 -0.5854,2.0425 z m 13.671,4.3569 v -10.6107 h 1.4078 v 9.3658 h 5.2164 v 1.2449 z m 16.7339,0 v -9.3659 h -3.4974 v -1.2448 h 8.4025 v 1.2448 h -3.4973 v 9.3659 z m 12.1496,0 v -10.6107 h 1.4079 v 4.3716 h 5.4832 v -4.3716 h 1.4078 v 10.6107 h -1.4078 v -4.9942 h -5.4832 v 4.9942 z m 23.9359,-3.7222 1.4079,0.3557 c -0.294,1.1534 -0.8225,2.0303 -1.5857,2.6353 -0.7633,0.6052 -1.6969,0.9091 -2.801,0.9091 -1.141,0 -2.0696,-0.2323 -2.7859,-0.699 -0.7163,-0.4644 -1.2598,-1.1387 -1.6327,-2.0205 -0.3729,-0.8842 -0.5606,-1.8302 -0.5606,-2.8428 0,-1.1041 0.2099,-2.0674 0.6323,-2.8899 0.4223,-0.8224 1.0226,-1.4473 1.8005,-1.8746 0.778,-0.4273 1.6351,-0.6397 2.5687,-0.6397 1.0621,0 1.9536,0.2692 2.675,0.8103 0.7237,0.5408 1.2274,1.2991 1.5115,2.2771 l -1.3782,0.326 c -0.2445,-0.7705 -0.6026,-1.3337 -1.0695,-1.6845 -0.4668,-0.3531 -1.0546,-0.5284 -1.7635,-0.5284 -0.8125,0 -1.4943,0.195 -2.0401,0.5853 -0.5459,0.3902 -0.9311,0.9164 -1.151,1.5734 -0.2223,0.6594 -0.3334,1.3386 -0.3334,2.0376 0,0.9016 0.1309,1.6894 0.3927,2.3613 0.2619,0.6741 0.6693,1.1756 1.2225,1.509 0.5533,0.3334 1.151,0.4989 1.7958,0.4989 0.7854,0 1.4473,-0.2272 1.9907,-0.6792 0.5433,-0.4545 0.9114,-1.1263 1.104,-2.0204 z m 7.7164,3.7222 4.0703,-10.6107 h 1.5437 l 4.3198,10.6107 h -1.598 l -1.2274,-3.2158 h -4.4682 l -1.151,3.2158 z m 3.0527,-4.3569 h 3.6159 l -1.1064,-2.9417 c -0.3335,-0.8942 -0.5854,-1.6327 -0.7607,-2.2155 -0.1459,0.6916 -0.3409,1.3708 -0.5854,2.0425 z m 13.7599,4.3569 v -10.6107 h 4.7027 c 0.946,0 1.6647,0.096 2.1562,0.2865 0.4916,0.1902 0.8843,0.526 1.1781,1.0077 0.2939,0.4816 0.4396,1.0151 0.4396,1.598 0,0.7533 -0.2445,1.3881 -0.731,1.9043 -0.4866,0.5162 -1.2374,0.8422 -2.2551,0.9831 0.373,0.1778 0.6546,0.3556 0.8472,0.5286 0.41,0.3753 0.7978,0.8471 1.1609,1.4126 l 1.8351,2.8899 h -1.7536 l -1.403,-2.2081 c -0.4074,-0.6398 -0.7459,-1.1263 -1.0102,-1.4647 -0.2667,-0.3383 -0.5037,-0.5731 -0.7136,-0.7088 -0.2075,-0.1335 -0.4225,-0.2272 -0.6399,-0.2816 -0.158,-0.032 -0.4174,-0.049 -0.7803,-0.049 h -1.6254 v 4.7126 z m 1.4077,-5.9277 h 3.0134 c 0.6421,0 1.1411,-0.067 1.5017,-0.2001 0.3606,-0.131 0.6347,-0.3434 0.82,-0.6373 0.1877,-0.2914 0.2816,-0.6076 0.2816,-0.9508 0,-0.5015 -0.1803,-0.9164 -0.5435,-1.24 -0.3629,-0.3235 -0.936,-0.484 -1.7189,-0.484 h -3.3543 z m 15.0297,5.9277 v -10.6107 h 7.6616 v 1.2448 h -6.2539 v 3.2603 h 5.8537 v 1.2449 h -5.8537 v 3.6158 h 6.5058 v 1.2449 z"
     style="fill:#004494;fill-rule:evenodd"
     id="path84" />
</svg>
